<svg id="visual" viewBox="0 0 960 540" width="960" height="540" xmlns="http://www.w3.org/2000/svg" xmlns:xlink="http://www.w3.org/1999/xlink" version="1.1"><path d="M0 456L22.8 459.3C45.7 462.7 91.3 469.3 137 473.3C182.7 477.3 228.3 478.7 274 480C319.7 481.3 365.3 482.7 411.2 482C457 481.3 503 478.7 548.8 471.5C594.7 464.3 640.3 452.7 686 445.2C731.7 437.7 777.3 434.3 823 439C868.7 443.7 914.3 456.3 937.2 462.7L960 469L960 541L937.2 541C914.3 541 868.7 541 823 541C777.3 541 731.7 541 686 541C640.3 541 594.7 541 548.8 541C503 541 457 541 411.2 541C365.3 541 319.7 541 274 541C228.3 541 182.7 541 137 541C91.3 541 45.7 541 22.8 541L0 541Z" fill="#003D7C" stroke-linecap="round" stroke-linejoin="miter"></path></svg>